<svg xmlns="http://www.w3.org/2000/svg" viewBox="0 0 44 44" width="44" height="44" role="img" aria-label="Loyainiti mark">
  <defs>
    <linearGradient id="markFoil" x1="0" x2="0" y1="0" y2="1">
      <stop offset="0%" stop-color="#EAC57C"/>
      <stop offset="50%" stop-color="#D4A24A"/>
      <stop offset="100%" stop-color="#B88A38"/>
    </linearGradient>
  </defs>
  <rect width="44" height="44" rx="10" fill="#1F1611"/>
  <g transform="translate(22 22.5)">
    <path fill-rule="evenodd" fill="url(#markFoil)" d="
      M 0 0 C -6 -8, -16 -9, -16 0 C -16 9, -6 8, 0 0
      C 6 -8, 16 -9, 16 0 C 16 9, 6 8, 0 0 Z
      M 0 0 C -3.5 -4, -9 -4.5, -9 0 C -9 4.5, -3.5 4, 0 0
      C 3.5 -4, 9 -4.5, 9 0 C 9 4.5, 3.5 4, 0 0 Z"/>
    <path fill="none" stroke="#8A6726" stroke-width="1.1" d="
      M 0 0 C -6 -8, -16 -9, -16 0 C -16 9, -6 8, 0 0
      C 6 -8, 16 -9, 16 0 C 16 9, 6 8, 0 0 Z"/>
  </g>
</svg>
